<svg width="101" height="101" viewBox="0 0 101 101" fill="none" xmlns="http://www.w3.org/2000/svg">
<rect x="1" y="1" width="99" height="99" rx="4" fill="#5D6580" stroke="#434663" stroke-width="2"/>
<path fill-rule="evenodd" clip-rule="evenodd" d="M49.9887 81.9175C48.332 82.3478 47.363 83.7003 47.2302 85.766C47.1911 86.3562 47.2145 86.5283 47.3864 87.0878C47.6209 87.8378 48.0272 88.7538 48.9493 90.592C49.7933 92.2827 49.9418 92.6577 50.2856 94.0041C50.6529 95.4488 51.1139 97.4899 51.1139 97.6497C51.1139 97.7235 51.1452 97.7911 51.1765 97.8096C51.2155 97.828 51.3718 97.2378 51.5359 96.5062C52.2705 93.1803 52.4424 92.6454 53.5599 90.2846C54.1616 88.9936 54.6461 87.8378 54.8414 87.2107C55.0446 86.5529 55.0212 85.2434 54.8023 84.4135C54.4741 83.1962 53.6771 82.3048 52.6221 81.9789C51.9735 81.7822 50.6373 81.7515 49.9887 81.9175ZM37.7742 87.6349C36.0316 88.1083 35.4533 89.5961 36.5786 90.715C37.1256 91.256 38.2665 91.7171 40.6812 92.3749C42.2753 92.8053 43.1662 93.1372 44.1274 93.6414C44.8854 94.0348 46.0028 94.8463 46.5967 95.4365L47.0031 95.8361L47.1125 95.6271C47.4876 94.914 46.6905 93.0389 45.2995 91.3605C44.354 90.2232 43.1115 89.1289 42.0096 88.471C41.4626 88.1452 40.2983 87.6841 39.7669 87.5858C39.2121 87.4812 38.2431 87.5058 37.7742 87.6349ZM58.5608 89.5039C59.7251 88.5448 60.8035 87.9546 61.921 87.6657C62.3898 87.5427 62.6165 87.5181 63.2651 87.5366C63.9762 87.5489 64.1012 87.5673 64.5701 87.7517C65.1405 87.9731 65.5391 88.2866 65.8204 88.7415C65.961 88.9567 66.0001 89.1289 66.0001 89.4854C66.0001 90.0756 65.7422 90.5183 65.164 90.9302C64.4294 91.4527 63.8121 91.6925 60.8816 92.5962C58.5842 93.3094 57.8262 93.6291 56.7009 94.3791C56.2321 94.6926 55.4741 95.332 55.1537 95.6947C55.0364 95.8238 55.0052 95.8361 54.9427 95.7562C54.8098 95.5902 54.7708 95.0554 54.8567 94.668C55.2084 93.1618 56.7791 90.9671 58.5608 89.5039Z" fill="white"/>
<circle cx="50.625" cy="62.115" r="12.625" fill="#7D92C7"/>
</svg>
